<?xml version="1.0" standalone="no"?>
<!DOCTYPE svg PUBLIC "-//W3C//DTD SVG 20010904//EN"
 "http://www.w3.org/TR/2001/REC-SVG-20010904/DTD/svg10.dtd">
<svg version="1.0" xmlns="http://www.w3.org/2000/svg"
 width="3731.000000pt" height="1865.000000pt" viewBox="0 0 3731.000000 1865.000000"
 preserveAspectRatio="xMidYMid meet">

<g transform="translate(0.000000,1865.000000) scale(0.100000,-0.100000)"
fill="#000000" stroke="none">
<path d="M16480 17275 c-190 -27 -333 -71 -495 -150 -380 -187 -706 -553 -850
-955 -122 -341 -140 -792 -46 -1161 79 -313 223 -569 451 -800 224 -228 433
-350 725 -424 186 -47 304 -58 551 -52 229 6 330 23 505 86 162 59 336 175
450 300 216 235 332 530 383 974 l6 47 -223 0 -223 0 -13 -75 c-60 -359 -252
-664 -493 -783 -135 -67 -217 -85 -393 -85 -289 0 -479 74 -660 258 -168 171
-269 408 -311 729 -23 172 -15 555 14 716 108 596 417 934 886 966 275 19 536
-79 711 -268 158 -170 247 -377 300 -700 l6 -38 199 0 200 0 0 690 0 690 -189
0 -189 0 -49 -144 -48 -145 -95 65 c-172 118 -368 202 -569 245 -127 27 -405
34 -541 14z"/>
<path d="M20265 17279 c-511 -28 -915 -204 -1236 -536 -306 -317 -459 -728
-459 -1233 0 -399 99 -750 289 -1028 337 -492 878 -752 1566 -752 653 0 1171
234 1515 684 248 324 367 777 330 1256 -33 435 -178 786 -439 1062 -382 403
-899 584 -1566 547z m454 -443 c401 -112 663 -462 735 -983 57 -407 8 -847
-124 -1130 -146 -311 -373 -496 -695 -564 -79 -17 -343 -17 -420 -1 -212 46
-362 128 -500 273 -192 203 -300 472 -336 844 -16 166 -6 477 20 625 75 426
266 723 561 870 162 81 265 101 495 96 145 -3 184 -8 264 -30z"/>
<path d="M22570 16996 l0 -194 203 -4 c179 -3 207 -6 248 -25 40 -18 49 -28
65 -69 18 -47 19 -98 19 -1194 0 -1096 -1 -1147 -19 -1194 -16 -41 -25 -51
-65 -69 -41 -19 -69 -22 -248 -25 l-203 -4 0 -194 0 -194 910 0 910 0 0 195 0
195 -178 0 c-261 0 -321 20 -354 118 -16 48 -24 2142 -9 2269 13 107 30 139
89 166 42 19 69 22 250 25 l202 4 0 194 0 194 -910 0 -910 0 0 -194z"/>
<path d="M24590 16996 l0 -194 203 -3 c192 -4 205 -5 252 -29 44 -22 52 -31
70 -80 20 -54 20 -80 20 -1180 0 -1100 0 -1126 -20 -1180 -18 -49 -26 -58 -70
-80 -48 -24 -59 -25 -262 -28 l-213 -4 0 -194 0 -194 830 0 830 0 0 194 0 194
-207 4 c-198 3 -210 4 -258 28 -44 22 -52 31 -70 80 -19 54 -20 84 -23 1135
-2 593 0 1076 4 1072 4 -4 377 -613 829 -1354 l822 -1348 361 -3 362 -2 2
1412 3 1413 22 48 c18 39 31 52 70 69 42 19 70 23 226 26 l177 4 0 194 0 194
-805 0 -805 0 0 -195 0 -195 188 0 c263 0 323 -17 361 -100 14 -31 16 -136 19
-980 l2 -945 -43 70 c-24 39 -355 582 -736 1208 l-693 1137 -724 0 -724 0 0
-194z"/>
<path d="M4675 17090 c-218 -8 -538 -59 -638 -100 -38 -16 -119 -60 -180 -98
-111 -70 -114 -71 -331 -127 l-219 -58 -88 27 c-48 14 -95 26 -104 26 -8 0
-42 -13 -75 -30 -52 -26 -130 -52 -266 -89 -33 -9 -48 -22 -79 -66 -74 -108
-103 -114 -311 -60 -217 56 -295 46 -518 -66 -158 -79 -207 -113 -287 -196
-115 -120 -199 -234 -369 -502 -148 -233 -207 -306 -292 -366 -94 -66 -131
-127 -130 -219 0 -34 5 -73 11 -85 11 -19 7 -28 -32 -74 -24 -29 -58 -73 -76
-99 -19 -29 -40 -48 -51 -48 -32 0 -105 -82 -129 -144 -29 -78 -67 -276 -81
-421 l-12 -120 -48 -50 c-61 -64 -81 -104 -87 -176 -10 -110 30 -193 132 -270
l55 -41 0 -62 c-1 -166 -82 -338 -256 -543 -113 -132 -119 -144 -119 -237 -1
-68 -6 -91 -29 -140 -66 -138 -73 -235 -41 -551 20 -188 40 -275 99 -428 141
-360 545 -1144 894 -1730 127 -213 186 -278 402 -441 80 -61 186 -151 235
-200 100 -102 168 -141 302 -178 70 -19 113 -21 441 -27 358 -6 363 -6 380
-28 29 -38 117 -66 207 -67 68 -1 88 3 137 27 32 16 74 48 95 71 l38 43 145
-4 c233 -8 349 31 471 159 37 39 77 80 89 92 12 11 49 48 83 81 43 41 80 93
121 165 32 58 60 106 61 107 1 2 103 -4 226 -12 123 -9 233 -13 245 -11 11 3
73 -10 136 -28 156 -46 249 -59 367 -51 123 9 173 20 240 52 l53 26 60 -19
c34 -10 91 -38 129 -62 92 -59 165 -82 273 -89 l91 -6 61 -66 61 -66 -43 -49
c-113 -130 -150 -280 -104 -428 11 -36 34 -84 51 -108 l31 -43 -28 -22 c-28
-23 -28 -23 -16 -82 16 -80 15 -116 -8 -263 -28 -179 -34 -285 -21 -350 9 -45
40 -97 169 -290 l157 -235 260 -169 260 -168 51 -127 50 -127 -28 -134 c-159
-762 -188 -937 -203 -1205 -4 -60 -2 -139 3 -175 20 -131 236 -678 398 -1006
166 -336 316 -559 489 -729 105 -104 140 -155 228 -330 80 -161 119 -296 103
-360 -4 -14 -36 -57 -71 -96 -127 -138 -165 -217 -165 -341 0 -60 12 -114 64
-296 35 -123 66 -225 68 -227 2 -3 95 -45 206 -95 l202 -90 446 -104 446 -103
612 336 c336 186 655 358 709 384 257 125 415 370 661 1026 42 112 86 216 96
231 15 22 31 29 72 34 80 11 189 51 268 98 87 52 222 169 312 269 l67 75 -59
554 c-33 305 -60 560 -60 566 0 6 74 70 164 144 156 126 164 134 170 174 3 22
42 379 86 791 l80 750 137 480 136 480 -7 225 -6 225 100 84 c55 46 100 89
100 95 0 19 -95 219 -148 313 -27 48 -62 116 -77 150 l-27 61 84 194 83 193
135 102 c196 149 226 182 390 434 80 123 333 493 562 821 465 665 435 613 587
1022 171 459 269 792 277 946 6 92 -9 356 -20 368 -3 3 -122 -50 -263 -118
-286 -137 -512 -235 -617 -270 l-69 -23 -64 23 c-122 43 -272 19 -558 -91 -71
-28 -140 -53 -153 -56 -38 -9 -163 26 -226 64 -33 20 -64 36 -70 36 -25 0
-296 -190 -358 -251 -67 -66 -68 -66 -68 -37 -1 43 -39 109 -84 144 -38 31
-119 61 -161 61 -29 0 -114 107 -218 274 -82 132 -111 162 -187 201 -44 22
-47 27 -59 82 -20 90 -53 144 -132 217 -39 36 -75 66 -80 66 -5 0 -9 7 -9 15
0 47 -73 137 -136 169 -24 12 -33 24 -39 53 -24 131 -80 219 -246 388 -126
129 -128 131 -143 198 -29 123 -66 175 -170 236 -73 44 -75 46 -111 127 -42
94 -47 75 52 226 l65 99 -21 82 c-11 45 -32 131 -46 190 -39 171 -95 290 -185
396 l-21 24 -117 -13 c-87 -9 -135 -10 -187 -2 -38 6 -137 16 -220 22 -264 19
-374 48 -502 131 -48 31 -91 48 -180 71 -144 37 -229 40 -296 10 l-48 -21
-119 81 -119 82 -144 4 c-112 3 -156 1 -199 -12 -71 -20 -143 -69 -182 -124
-30 -42 -31 -49 -57 -293 -14 -137 -28 -251 -31 -254 -2 -3 -56 10 -119 29
-63 18 -150 41 -194 50 -44 9 -89 19 -101 21 -12 3 -32 22 -46 42 -92 137
-254 224 -453 242 l-70 6 -6 40 c-12 87 -98 171 -212 206 -66 21 -68 22 -97
79 -31 62 -43 70 -96 70 -21 0 -34 5 -34 13 0 12 76 443 85 485 5 21 2 22 -47
22 -52 0 -53 1 -128 75 l-76 76 -65 1 c-77 1 -136 -24 -233 -101 -58 -45 -62
-47 -92 -35 -67 28 -244 46 -379 39 l-130 -6 -27 58 c-36 79 -88 136 -150 167
-50 25 -59 26 -202 24 -83 -1 -227 -4 -321 -8z m1060 -658 c-10 -10 -57 43
-76 86 -32 73 -20 148 34 209 l32 36 8 -162 c4 -90 6 -166 2 -169z m-722 183
c33 -68 98 -139 152 -168 38 -21 51 -22 260 -19 121 1 240 -1 265 -5 39 -7 45
-12 48 -35 3 -22 10 -29 39 -34 41 -8 139 1 194 18 22 6 41 9 44 6 3 -2 -2
-29 -11 -59 -22 -75 -28 -176 -15 -226 24 -87 107 -165 211 -199 34 -11 71
-34 97 -58 23 -22 59 -50 80 -61 33 -19 39 -28 45 -70 14 -99 98 -186 211
-220 29 -9 113 -20 188 -25 172 -11 207 -24 250 -93 43 -69 96 -125 141 -148
21 -10 102 -32 180 -49 146 -30 210 -48 423 -116 113 -35 128 -38 250 -38 125
-1 132 0 195 30 119 57 189 153 220 302 17 84 17 88 -1 122 -10 19 -25 62 -34
95 -9 32 -28 81 -41 108 l-25 48 123 -84 c102 -69 133 -85 173 -90 68 -8 141
8 195 41 42 26 48 28 90 16 25 -6 76 -30 114 -52 137 -81 332 -135 536 -148
56 -4 103 -11 106 -15 2 -4 -19 -44 -47 -88 l-51 -81 135 -143 c130 -137 136
-145 170 -234 20 -50 47 -108 60 -130 14 -21 53 -97 87 -169 l61 -130 81 -50
80 -49 17 -65 c24 -96 56 -142 196 -280 70 -69 135 -137 145 -151 11 -14 26
-57 36 -95 27 -111 69 -188 140 -252 34 -31 69 -72 78 -89 9 -18 52 -62 95
-98 64 -53 80 -72 85 -101 5 -21 22 -51 47 -76 28 -29 39 -49 39 -70 0 -43 31
-80 108 -132 58 -38 76 -58 119 -129 80 -129 162 -235 250 -318 73 -69 80 -81
86 -124 4 -26 26 -91 49 -144 32 -74 55 -110 101 -158 l59 -61 96 5 c71 4 104
10 123 23 14 10 66 38 115 63 96 48 116 64 265 205 55 50 107 92 117 92 10 0
60 -9 112 -21 152 -33 221 -25 405 49 83 33 184 71 227 83 l76 22 66 -21 c127
-42 249 -25 484 68 113 44 122 46 116 27 -27 -89 -159 -456 -220 -609 l-74
-186 -408 -585 c-225 -322 -474 -685 -553 -807 l-144 -222 -155 -118 c-235
-179 -217 -155 -375 -520 l-136 -315 47 -105 c25 -58 69 -152 97 -209 l50
-103 -55 -52 -54 -51 9 -290 9 -290 -130 -455 -130 -455 -78 -728 -79 -728
-174 -142 c-96 -78 -181 -147 -188 -152 -12 -9 -4 -103 47 -588 34 -318 59
-584 56 -592 -8 -21 -134 -122 -180 -143 -23 -11 -71 -25 -108 -31 -140 -24
-226 -73 -308 -177 -59 -73 -74 -105 -184 -397 -185 -491 -311 -707 -440 -751
-17 -6 -292 -155 -610 -330 l-579 -319 -346 81 c-291 67 -361 87 -441 125
l-96 44 -28 101 -28 102 69 74 c120 128 167 245 167 411 -1 201 -79 413 -272
738 -58 98 -87 136 -122 162 -203 149 -454 571 -686 1157 -114 288 -144 383
-144 458 0 152 46 435 151 941 l62 297 -21 27 c-31 39 -28 69 13 108 30 29 35
41 35 80 0 51 -13 93 -38 120 -9 11 -47 94 -83 185 l-67 167 -278 180 -279
181 -109 161 -108 161 27 189 c15 103 32 193 38 199 7 6 78 64 160 129 81 64
147 120 147 124 0 3 -72 46 -160 95 -87 49 -175 102 -195 119 l-37 30 49 49
c26 27 110 92 185 145 136 95 137 96 120 117 -68 87 -478 525 -504 540 -63 35
-143 57 -238 63 -85 5 -100 9 -145 38 -70 45 -101 60 -177 85 -55 17 -68 27
-84 56 -10 19 -23 33 -29 31 -5 -3 -94 -24 -197 -47 -128 -30 -188 -48 -188
-57 0 -28 -126 -16 -280 27 -95 26 -169 41 -215 42 -38 1 -184 8 -323 16 -275
16 -309 13 -389 -34 -61 -35 -132 -121 -197 -237 l-58 -103 -50 1 -50 0 -34
-85 c-57 -143 -102 -165 -279 -135 -158 27 -264 5 -354 -72 l-35 -30 -58 18
c-97 31 -211 39 -498 37 -350 -3 -360 -1 -470 110 -41 43 -132 119 -200 171
-256 193 -245 180 -473 581 -205 362 -339 612 -501 940 -157 315 -232 487
-270 612 -25 86 -49 282 -50 423 l-1 80 63 103 c78 127 92 159 92 218 0 36 6
54 29 83 54 68 142 211 176 284 115 251 136 540 51 709 l-33 66 38 18 c22 9
39 21 39 27 0 5 -10 42 -21 81 -19 62 -21 86 -15 181 3 61 12 142 19 181 11
61 18 76 46 100 18 15 63 72 99 128 38 57 104 137 153 186 113 111 133 150
133 257 1 74 3 84 27 110 46 49 132 172 243 346 232 364 305 448 463 532 59
31 118 58 132 61 14 3 80 -9 146 -26 277 -74 455 -43 615 106 54 51 78 65 143
86 l78 26 75 -23 75 -23 292 78 c160 43 313 87 339 98 26 12 89 47 140 80 130
83 119 78 289 108 156 27 300 39 509 42 l116 2 27 -55z"/>
<path d="M14689 8761 c-42 -27 -80 -54 -84 -62 -10 -15 -24 -78 -30 -133 -8
-64 26 -106 86 -106 56 0 91 37 120 125 24 75 26 117 4 151 -7 11 -15 33 -17
47 l-3 27 -76 -49z"/>
<path d="M13005 7084 c-22 -15 -49 -35 -60 -44 -11 -10 -31 -20 -45 -23 -14
-4 -37 -18 -52 -32 -25 -23 -28 -33 -28 -91 0 -55 -4 -71 -24 -95 -22 -25 -24
-36 -21 -112 3 -120 30 -157 115 -157 83 0 140 62 177 193 8 29 21 75 29 102
26 87 29 104 26 177 -1 29 -8 52 -18 60 -8 7 -24 21 -35 31 -10 9 -20 17 -22
17 -1 0 -20 -12 -42 -26z m70 -64 c3 -5 1 -10 -4 -10 -6 0 -11 5 -11 10 0 6 2
10 4 10 3 0 8 -4 11 -10z"/>
<path d="M13588 6233 c-19 -24 -30 -28 -65 -25 -33 3 -47 -2 -75 -26 -18 -16
-79 -58 -134 -95 -106 -69 -120 -87 -139 -175 -8 -39 -22 -43 -125 -40 -106 4
-141 -6 -212 -61 -40 -30 -77 -50 -103 -54 -56 -9 -84 -34 -130 -113 -38 -65
-40 -72 -39 -149 1 -50 11 -121 27 -188 33 -133 33 -147 2 -222 -27 -65 -32
-133 -14 -184 10 -28 9 -35 -9 -54 -33 -37 -44 -67 -51 -141 l-6 -71 -79 -42
c-44 -24 -91 -53 -104 -65 -59 -54 -69 -151 -25 -239 24 -46 28 -66 28 -139 0
-91 -17 -239 -36 -325 -11 -48 -10 -59 8 -102 11 -26 24 -66 28 -88 11 -62 31
-91 87 -125 29 -18 68 -45 85 -61 52 -45 102 -55 160 -34 26 9 93 20 148 24
114 8 135 18 183 85 21 30 42 47 62 51 51 11 88 51 106 113 18 66 44 109 126
209 65 80 78 107 78 164 0 28 12 62 40 113 22 40 40 84 40 98 0 93 67 343 120
450 37 72 52 130 51 193 0 27 9 74 19 103 11 29 24 87 29 130 5 49 17 91 31
115 15 25 19 42 13 48 -6 6 -6 31 -1 69 8 48 6 63 -7 84 -13 20 -14 31 -5 64
8 33 16 42 41 47 19 4 41 22 61 48 l30 42 -8 125 c-4 69 -7 176 -5 238 3 129
-7 170 -50 207 -26 21 -41 25 -94 25 -57 0 -66 -3 -87 -27z m47 -255 c0 -24 4
-73 8 -110 6 -57 5 -68 -8 -68 -8 0 -29 -13 -47 -29 -25 -23 -33 -39 -38 -82
-4 -30 -15 -91 -24 -135 -15 -69 -15 -89 -5 -125 7 -24 11 -48 9 -54 -12 -36
-40 -187 -40 -220 0 -22 -10 -60 -22 -85 -14 -31 -22 -71 -25 -129 -2 -60 -9
-93 -23 -115 -45 -73 -125 -341 -136 -456 -5 -48 -17 -83 -45 -135 -24 -44
-40 -90 -45 -125 -6 -47 -15 -65 -62 -124 -70 -87 -120 -170 -128 -211 -4 -24
-13 -34 -38 -43 -33 -12 -87 -60 -114 -100 -14 -21 -19 -22 -86 -16 -55 5 -80
3 -110 -10 -39 -16 -40 -16 -65 7 -14 14 -38 32 -53 42 -16 9 -28 25 -28 35 0
10 -9 37 -19 61 -11 24 -18 46 -15 51 2 4 9 47 14 95 5 48 14 123 21 166 15
93 0 219 -32 280 -11 22 -18 46 -15 53 3 7 40 31 83 53 43 21 86 47 95 58 27
29 45 82 53 153 5 44 13 69 25 77 45 32 62 125 36 199 -12 36 -11 44 15 109
36 90 36 132 -1 293 -16 72 -30 144 -30 160 0 40 31 76 78 90 22 7 68 35 103
62 l64 50 104 0 c175 0 230 30 252 138 12 59 14 62 43 62 34 0 117 50 140 85
12 18 27 25 63 28 27 2 48 4 48 5 0 1 0 -17 0 -40z"/>
<path d="M29517 5290 c-380 -48 -682 -195 -953 -465 -196 -194 -315 -369 -404
-592 -91 -231 -125 -426 -124 -718 1 -230 12 -327 64 -520 147 -556 545 -993
1065 -1172 157 -53 295 -74 530 -80 326 -8 505 23 721 126 132 63 209 116 311
214 244 234 390 572 428 990 l7 77 -220 0 -221 0 -11 -57 c-66 -333 -188 -572
-365 -716 -76 -61 -219 -131 -312 -151 -154 -34 -326 -30 -488 10 -91 23 -252
106 -321 166 -252 218 -374 533 -391 1013 -18 525 107 948 356 1208 113 117
238 189 400 229 67 17 117 22 226 22 153 0 260 -20 368 -68 188 -83 365 -265
456 -468 55 -124 121 -365 121 -444 l0 -24 200 0 200 0 0 690 0 690 -187 -2
-186 -3 -49 -141 -50 -141 -95 64 c-184 123 -373 204 -572 244 -110 23 -393
33 -504 19z"/>
<path d="M15786 3848 c-263 -744 -492 -1379 -508 -1410 -83 -157 -180 -208
-398 -208 l-100 0 0 -195 0 -195 785 0 785 0 0 194 0 194 -227 4 c-192 3 -233
6 -259 20 -65 36 -61 73 45 383 l88 260 551 3 c517 2 550 1 557 -15 4 -10 45
-121 92 -248 143 -387 137 -397 -234 -403 l-223 -4 0 -194 0 -194 870 0 870 0
0 194 0 194 -132 4 c-201 7 -245 34 -318 193 -20 44 -266 686 -546 1428 l-509
1347 -356 0 -356 0 -477 -1352z m770 -536 c-219 -1 -401 0 -404 3 -4 3 321
973 370 1105 8 21 41 -58 222 -540 l212 -565 -400 -3z"/>
<path d="M18560 5006 l0 -194 193 -3 c181 -4 195 -6 242 -29 44 -22 52 -31 70
-80 20 -54 20 -80 20 -1180 0 -1100 0 -1126 -20 -1180 -18 -49 -26 -58 -70
-80 -47 -24 -61 -25 -242 -28 l-193 -4 0 -194 0 -194 905 0 905 0 0 194 0 194
-212 4 c-221 5 -252 10 -296 51 -49 46 -52 82 -52 620 l0 500 109 -7 c140 -8
199 -20 273 -53 130 -58 182 -181 210 -495 l12 -138 193 0 193 0 0 845 0 845
-194 0 -193 0 -7 -87 c-9 -118 -41 -272 -70 -336 -55 -124 -154 -169 -408
-183 l-118 -7 0 512 0 513 458 -5 c509 -5 569 -11 706 -77 200 -95 297 -337
322 -797 l7 -133 193 0 194 0 0 700 0 700 -1565 0 -1565 0 0 -194z"/>
<path d="M22030 5007 l0 -195 193 -4 c273 -5 303 -21 327 -175 16 -105 9
-2236 -8 -2285 -33 -97 -94 -118 -344 -118 l-168 0 0 -195 0 -195 905 0 905 0
0 195 0 195 -182 0 c-283 0 -342 23 -367 139 -7 34 -11 225 -11 551 l0 500
148 0 c188 0 361 -15 460 -41 163 -41 248 -101 310 -216 64 -121 82 -243 102
-703 12 -288 35 -375 129 -500 78 -105 190 -173 334 -205 112 -25 352 -17 452
15 304 96 435 354 435 858 l0 172 -164 0 -164 0 -6 -77 c-21 -292 -45 -404
-96 -455 -38 -38 -88 -38 -131 0 -43 39 -55 99 -79 410 -21 275 -36 373 -74
477 -51 141 -121 221 -250 285 -75 37 -248 89 -300 91 -11 0 33 11 99 25 479
99 737 322 795 687 16 95 8 287 -15 372 -42 153 -144 296 -273 382 -124 82
-316 145 -547 180 -97 15 -251 17 -1262 20 l-1153 4 0 -194z m2045 -207 c181
-26 283 -69 359 -151 64 -69 93 -137 109 -257 30 -226 -57 -417 -227 -500
-142 -69 -186 -75 -633 -79 l-403 -5 0 501 0 501 363 0 c199 0 394 -5 432 -10z"/>
<path d="M25910 5006 l0 -194 203 -3 c192 -4 205 -5 252 -29 44 -22 52 -31 70
-80 20 -54 20 -80 20 -1180 0 -1100 0 -1126 -20 -1180 -18 -49 -26 -58 -70
-80 -48 -24 -60 -25 -252 -28 l-203 -4 0 -194 0 -194 910 0 910 0 0 194 0 194
-202 4 c-302 6 -321 18 -338 231 -5 61 -10 537 -10 1057 0 520 5 996 10 1057
11 142 27 178 89 207 41 18 70 21 249 24 l202 4 0 194 0 194 -910 0 -910 0 0
-194z"/>
<path d="M32707 5158 c-165 -482 -938 -2652 -962 -2703 -81 -170 -180 -225
-405 -225 l-100 0 0 -195 0 -195 785 0 785 0 0 194 0 194 -227 4 c-358 5 -354
-2 -214 404 l89 259 550 3 c517 2 550 1 557 -15 3 -10 43 -117 87 -238 95
-257 107 -327 66 -368 -37 -37 -107 -47 -323 -47 l-195 0 0 -195 0 -195 870 0
870 0 0 194 0 194 -132 4 c-201 7 -245 34 -319 193 -20 44 -266 686 -545 1427
l-509 1348 -357 0 -356 0 -15 -42z m506 -1846 c-112 -1 -294 -1 -406 0 l-203
3 188 550 c103 303 191 557 194 565 3 8 101 -239 218 -550 l212 -565 -203 -3z"/>
<path d="M14190 4080 c-112 -72 -120 -81 -120 -136 0 -29 -6 -54 -16 -65 -21
-24 -26 -125 -7 -162 33 -66 138 -68 187 -4 13 18 34 64 46 102 12 39 26 80
31 93 5 13 9 50 9 82 0 47 -4 64 -20 80 -11 11 -20 29 -20 40 0 11 -3 20 -7
19 -5 0 -42 -22 -83 -49z"/>
</g>
</svg>
